<svg width="463" height="148" viewBox="0 0 463 148" fill="none" xmlns="http://www.w3.org/2000/svg">
<circle cx="40.2329" cy="57.4556" r="39.8589" fill="#7E00A3"/>
<circle cx="40.2329" cy="57.4556" r="37.4736" fill="#6184FF"/>
<circle cx="40.2329" cy="57.4556" r="35.1511" fill="#29125E"/>
<rect x="40.4578" y="75.4487" width="22.9413" height="35.9863" transform="rotate(-180 40.4578 75.4487)" fill="#6184FF"/>
<rect x="62.9492" y="75.4487" width="22.9413" height="35.9863" transform="rotate(-180 62.9492 75.4487)" fill="#29125E"/>
<path d="M40.2122 75.4487L17.7207 39.4624L62.7036 39.4624L40.2122 75.4487Z" fill="#C600FF"/>
<path d="M116.476 90.6872C111.346 90.6872 107.04 89.9588 103.556 88.5022C100.136 87.0455 97.603 85.3038 95.9563 83.2772C94.3097 81.2505 93.4863 79.4455 93.4863 77.8622C93.4863 77.2288 93.708 76.7222 94.1513 76.3422C94.658 75.8988 95.1963 75.6772 95.7663 75.6772H106.596C106.976 75.6772 107.325 75.8355 107.641 76.1522C108.401 76.6588 108.971 77.0705 109.351 77.3872C110.745 78.4005 111.948 79.1605 112.961 79.6672C114.038 80.1105 115.336 80.3322 116.856 80.3322C118.693 80.3322 120.181 79.9838 121.321 79.2872C122.525 78.5272 123.126 77.4822 123.126 76.1522C123.126 75.0755 122.81 74.2205 122.176 73.5872C121.606 72.9538 120.466 72.3522 118.756 71.7822C117.046 71.1488 114.45 70.4838 110.966 69.7872C105.71 68.7105 101.656 66.9688 98.8063 64.5622C96.0197 62.0922 94.6263 58.7988 94.6263 54.6822C94.6263 52.0855 95.4497 49.6155 97.0963 47.2722C98.743 44.9288 101.181 43.0288 104.411 41.5722C107.705 40.1155 111.6 39.3872 116.096 39.3872C120.593 39.3872 124.52 40.0838 127.876 41.4772C131.233 42.8705 133.766 44.5805 135.476 46.6072C137.25 48.5705 138.136 50.3755 138.136 52.0222C138.136 52.5922 137.915 53.0988 137.471 53.5422C137.091 53.9855 136.616 54.2072 136.046 54.2072H126.166C125.66 54.2072 125.185 54.0488 124.741 53.7322C123.918 53.2888 123.19 52.8138 122.556 52.3072C121.48 51.4838 120.466 50.8505 119.516 50.4072C118.566 49.9638 117.395 49.7422 116.001 49.7422C114.355 49.7422 113.025 50.1222 112.011 50.8822C111.061 51.6422 110.586 52.6238 110.586 53.8272C110.586 54.7772 110.84 55.5688 111.346 56.2022C111.916 56.8355 113.056 57.4688 114.766 58.1022C116.54 58.6722 119.136 59.2738 122.556 59.9072C128.7 60.9838 133.165 62.8838 135.951 65.6072C138.801 68.3305 140.226 71.5288 140.226 75.2022C140.226 79.8888 138.136 83.6572 133.956 86.5072C129.776 89.2938 123.95 90.6872 116.476 90.6872ZM172.026 90.6872C164.173 90.6872 158.124 88.8188 153.881 85.0822C149.638 81.3455 147.326 76.0888 146.946 69.3122C146.883 68.4888 146.851 67.0638 146.851 65.0372C146.851 63.0105 146.883 61.5855 146.946 60.7622C147.326 54.0488 149.701 48.8238 154.071 45.0872C158.441 41.2872 164.426 39.3872 172.026 39.3872C179.689 39.3872 185.706 41.2872 190.076 45.0872C194.446 48.8238 196.821 54.0488 197.201 60.7622C197.264 61.5855 197.296 63.0105 197.296 65.0372C197.296 67.0638 197.264 68.4888 197.201 69.3122C196.821 76.0888 194.509 81.3455 190.266 85.0822C186.023 88.8188 179.943 90.6872 172.026 90.6872ZM172.026 79.0972C174.813 79.0972 176.871 78.2738 178.201 76.6272C179.531 74.9172 180.291 72.3205 180.481 68.8372C180.544 68.2038 180.576 66.9372 180.576 65.0372C180.576 63.1372 180.544 61.8705 180.481 61.2372C180.291 57.8172 179.499 55.2522 178.106 53.5422C176.776 51.8322 174.749 50.9772 172.026 50.9772C166.769 50.9772 163.983 54.3972 163.666 61.2372L163.571 65.0372L163.666 68.8372C163.793 72.3205 164.521 74.9172 165.851 76.6272C167.244 78.2738 169.303 79.0972 172.026 79.0972ZM227.062 90.6872C221.932 90.6872 217.626 89.9588 214.142 88.5022C210.722 87.0455 208.189 85.3038 206.542 83.2772C204.896 81.2505 204.072 79.4455 204.072 77.8622C204.072 77.2288 204.294 76.7222 204.737 76.3422C205.244 75.8988 205.782 75.6772 206.352 75.6772H217.182C217.562 75.6772 217.911 75.8355 218.227 76.1522C218.987 76.6588 219.557 77.0705 219.937 77.3872C221.331 78.4005 222.534 79.1605 223.547 79.6672C224.624 80.1105 225.922 80.3322 227.442 80.3322C229.279 80.3322 230.767 79.9838 231.907 79.2872C233.111 78.5272 233.712 77.4822 233.712 76.1522C233.712 75.0755 233.396 74.2205 232.762 73.5872C232.192 72.9538 231.052 72.3522 229.342 71.7822C227.632 71.1488 225.036 70.4838 221.552 69.7872C216.296 68.7105 212.242 66.9688 209.392 64.5622C206.606 62.0922 205.212 58.7988 205.212 54.6822C205.212 52.0855 206.036 49.6155 207.682 47.2722C209.329 44.9288 211.767 43.0288 214.997 41.5722C218.291 40.1155 222.186 39.3872 226.682 39.3872C231.179 39.3872 235.106 40.0838 238.462 41.4772C241.819 42.8705 244.352 44.5805 246.062 46.6072C247.836 48.5705 248.722 50.3755 248.722 52.0222C248.722 52.5922 248.501 53.0988 248.057 53.5422C247.677 53.9855 247.202 54.2072 246.632 54.2072H236.752C236.246 54.2072 235.771 54.0488 235.327 53.7322C234.504 53.2888 233.776 52.8138 233.142 52.3072C232.066 51.4838 231.052 50.8505 230.102 50.4072C229.152 49.9638 227.981 49.7422 226.587 49.7422C224.941 49.7422 223.611 50.1222 222.597 50.8822C221.647 51.6422 221.172 52.6238 221.172 53.8272C221.172 54.7772 221.426 55.5688 221.932 56.2022C222.502 56.8355 223.642 57.4688 225.352 58.1022C227.126 58.6722 229.722 59.2738 233.142 59.9072C239.286 60.9838 243.751 62.8838 246.537 65.6072C249.387 68.3305 250.812 71.5288 250.812 75.2022C250.812 79.8888 248.722 83.6572 244.542 86.5072C240.362 89.2938 234.536 90.6872 227.062 90.6872ZM282.612 90.6872C274.759 90.6872 268.71 88.8188 264.467 85.0822C260.224 81.3455 257.912 76.0888 257.532 69.3122C257.469 68.4888 257.437 67.0638 257.437 65.0372C257.437 63.0105 257.469 61.5855 257.532 60.7622C257.912 54.0488 260.287 48.8238 264.657 45.0872C269.027 41.2872 275.012 39.3872 282.612 39.3872C290.275 39.3872 296.292 41.2872 300.662 45.0872C305.032 48.8238 307.407 54.0488 307.787 60.7622C307.85 61.5855 307.882 63.0105 307.882 65.0372C307.882 67.0638 307.85 68.4888 307.787 69.3122C307.407 76.0888 305.095 81.3455 300.852 85.0822C296.609 88.8188 290.529 90.6872 282.612 90.6872ZM282.612 79.0972C285.399 79.0972 287.457 78.2738 288.787 76.6272C290.117 74.9172 290.877 72.3205 291.067 68.8372C291.13 68.2038 291.162 66.9372 291.162 65.0372C291.162 63.1372 291.13 61.8705 291.067 61.2372C290.877 57.8172 290.085 55.2522 288.692 53.5422C287.362 51.8322 285.335 50.9772 282.612 50.9772C277.355 50.9772 274.569 54.3972 274.252 61.2372L274.157 65.0372L274.252 68.8372C274.379 72.3205 275.107 74.9172 276.437 76.6272C277.83 78.2738 279.889 79.0972 282.612 79.0972ZM319.693 89.7372C319.06 89.7372 318.49 89.5155 317.983 89.0722C317.54 88.5655 317.318 87.9955 317.318 87.3622V24.6622C317.318 23.9655 317.54 23.3955 317.983 22.9522C318.49 22.5088 319.06 22.2872 319.693 22.2872H330.903C331.6 22.2872 332.17 22.5088 332.613 22.9522C333.057 23.3955 333.278 23.9655 333.278 24.6622V87.3622C333.278 88.0588 333.057 88.6288 332.613 89.0722C332.17 89.5155 331.6 89.7372 330.903 89.7372H319.693Z" fill="#C600FF"/>
<path d="M8.77167 123.285L15.5891 139.598L22.4318 123.285H24.5139V141.769H22.9523V133.72L23.0793 125.468L16.1984 141.769H14.9924L8.1369 125.532L8.26385 133.67V141.769H6.70233V123.285H8.77167ZM42.8586 133.53C42.8586 135.231 42.5624 136.725 41.9699 138.011C41.3859 139.298 40.548 140.288 39.4562 140.982C38.3644 141.676 37.1034 142.023 35.673 142.023C33.5148 142.023 31.7713 141.253 30.4426 139.713C29.1138 138.164 28.4494 136.078 28.4494 133.454V131.55C28.4494 129.865 28.7456 128.376 29.3381 127.081C29.939 125.777 30.7853 124.779 31.8771 124.085C32.9689 123.382 34.2258 123.031 35.6476 123.031C37.0695 123.031 38.3221 123.374 39.4055 124.059C40.4973 124.745 41.3394 125.714 41.9318 126.967C42.5243 128.219 42.8332 129.671 42.8586 131.321V133.53ZM41.2971 131.524C41.2971 129.298 40.7935 127.555 39.7863 126.294C38.7792 125.033 37.3996 124.402 35.6476 124.402C33.9295 124.402 32.5585 125.037 31.5344 126.306C30.5187 127.567 30.0109 129.332 30.0109 131.6V133.53C30.0109 135.722 30.5187 137.461 31.5344 138.748C32.55 140.026 33.9295 140.665 35.673 140.665C37.4419 140.665 38.8215 140.034 39.8117 138.773C40.8019 137.504 41.2971 135.739 41.2971 133.479V131.524ZM60.5558 141.769H58.9943L48.3683 125.951V141.769H46.7941V123.285H48.3683L59.007 139.116V123.285H60.5558V141.769ZM75.4601 132.908H66.8146V140.449H76.7551V141.769H65.2531V123.285H76.6916V124.618H66.8146V131.588H75.4601V132.908ZM92.8527 124.618H86.5178V141.769H84.9562V124.618H78.634V123.285H92.8527V124.618ZM97.7531 141.769H96.1916V123.285H97.7531V141.769ZM103.479 140.449H114.892V141.769H101.587V140.589L112.556 124.618H101.917V123.285H114.486V124.402L103.479 140.449ZM128.552 132.908H119.906V140.449H129.847V141.769H118.345V123.285H129.783V124.618H119.906V131.588H128.552V132.908ZM133.148 141.769V123.285H138.315C139.83 123.285 141.188 123.632 142.39 124.326C143.592 125.011 144.527 125.997 145.195 127.284C145.873 128.57 146.211 130.035 146.211 131.676V133.378C146.211 135.028 145.877 136.492 145.208 137.77C144.54 139.048 143.596 140.034 142.377 140.728C141.167 141.422 139.775 141.769 138.2 141.769H133.148ZM134.709 124.618V140.449H138.213C140.16 140.449 141.721 139.806 142.898 138.519C144.074 137.224 144.662 135.477 144.662 133.276V131.651C144.662 129.527 144.083 127.826 142.923 126.548C141.764 125.27 140.236 124.626 138.34 124.618H134.709ZM148.395 140.855C148.395 140.559 148.488 140.309 148.674 140.106C148.869 139.895 149.135 139.789 149.474 139.789C149.812 139.789 150.079 139.895 150.274 140.106C150.468 140.309 150.566 140.559 150.566 140.855C150.566 141.151 150.468 141.397 150.274 141.592C150.079 141.778 149.812 141.871 149.474 141.871C149.135 141.871 148.869 141.778 148.674 141.592C148.488 141.397 148.395 141.151 148.395 140.855ZM161.433 141.769V123.285H166.6C168.115 123.285 169.473 123.632 170.675 124.326C171.877 125.011 172.812 125.997 173.481 127.284C174.158 128.57 174.496 130.035 174.496 131.676V133.378C174.496 135.028 174.162 136.492 173.493 137.77C172.825 139.048 171.881 140.034 170.662 140.728C169.452 141.422 168.06 141.769 166.486 141.769H161.433ZM162.994 124.618V140.449H166.498C168.445 140.449 170.006 139.806 171.183 138.519C172.359 137.224 172.947 135.477 172.947 133.276V131.651C172.947 129.527 172.368 127.826 171.208 126.548C170.049 125.27 168.521 124.626 166.625 124.618H162.994ZM188.677 132.908H180.031V140.449H189.972V141.769H178.47V123.285H189.908V124.618H180.031V131.588H188.677V132.908ZM206.362 136.006C206.15 137.952 205.452 139.442 204.267 140.474C203.09 141.507 201.52 142.023 199.557 142.023C198.186 142.023 196.971 141.68 195.913 140.995C194.864 140.309 194.051 139.34 193.476 138.088C192.9 136.827 192.608 135.388 192.6 133.771V131.372C192.6 129.73 192.888 128.274 193.463 127.005C194.039 125.735 194.864 124.758 195.939 124.072C197.022 123.378 198.266 123.031 199.671 123.031C201.652 123.031 203.213 123.568 204.356 124.643C205.507 125.71 206.175 127.187 206.362 129.074H204.787C204.398 125.934 202.693 124.364 199.671 124.364C197.995 124.364 196.658 124.99 195.659 126.243C194.669 127.495 194.174 129.226 194.174 131.435V133.695C194.174 135.828 194.656 137.529 195.621 138.799C196.595 140.068 197.906 140.703 199.557 140.703C201.19 140.703 202.422 140.314 203.251 139.535C204.081 138.748 204.593 137.571 204.787 136.006H206.362ZM220.364 132.908H211.719V140.449H221.659V141.769H210.157V123.285H221.596V124.618H211.719V131.588H220.364V132.908ZM238.722 141.769H237.16L226.534 125.951V141.769H224.96V123.285H226.534L237.173 139.116V123.285H238.722V141.769ZM255.581 124.618H249.246V141.769H247.685V124.618H241.362V123.285H255.581V124.618ZM265.484 134.076H260.113V141.769H258.539V123.285H264.544C266.516 123.285 268.056 123.763 269.165 124.719C270.274 125.676 270.828 127.013 270.828 128.731C270.828 129.916 270.481 130.961 269.787 131.867C269.093 132.772 268.162 133.399 266.994 133.746L271.615 141.604V141.769H269.952L265.484 134.076ZM260.113 132.743H264.9C266.211 132.743 267.265 132.37 268.061 131.626C268.856 130.881 269.254 129.916 269.254 128.731C269.254 127.428 268.839 126.416 268.01 125.697C267.181 124.978 266.017 124.618 264.519 124.618H260.113V132.743ZM285.06 136.59H276.668L274.764 141.769H273.126L280.121 123.285H281.607L288.602 141.769H286.977L285.06 136.59ZM277.151 135.257H284.565L280.858 125.189L277.151 135.257ZM292.905 140.449H302.033V141.769H291.331V123.285H292.905V140.449ZM306.946 141.769H305.385V123.285H306.946V141.769ZM312.672 140.449H324.085V141.769H310.78V140.589L321.749 124.618H311.111V123.285H323.679V124.402L312.672 140.449ZM337.745 132.908H329.1V140.449H339.04V141.769H327.538V123.285H338.977V124.618H329.1V131.588H337.745V132.908ZM342.341 141.769V123.285H347.508C349.023 123.285 350.381 123.632 351.583 124.326C352.785 125.011 353.72 125.997 354.389 127.284C355.066 128.57 355.404 130.035 355.404 131.676V133.378C355.404 135.028 355.07 136.492 354.402 137.77C353.733 139.048 352.789 140.034 351.57 140.728C350.36 141.422 348.968 141.769 347.394 141.769H342.341ZM343.903 124.618V140.449H347.406C349.353 140.449 350.915 139.806 352.091 138.519C353.267 137.224 353.856 135.477 353.856 133.276V131.651C353.856 129.527 353.276 127.826 352.116 126.548C350.957 125.27 349.429 124.626 347.533 124.618H343.903ZM357.588 140.855C357.588 140.559 357.681 140.309 357.867 140.106C358.062 139.895 358.329 139.789 358.667 139.789C359.006 139.789 359.272 139.895 359.467 140.106C359.662 140.309 359.759 140.559 359.759 140.855C359.759 141.151 359.662 141.397 359.467 141.592C359.272 141.778 359.006 141.871 358.667 141.871C358.329 141.871 358.062 141.778 357.867 141.592C357.681 141.397 357.588 141.151 357.588 140.855ZM381.087 137.224C381.087 136.2 380.727 135.392 380.008 134.8C379.289 134.199 377.973 133.632 376.06 133.098C374.147 132.557 372.751 131.968 371.87 131.334C370.618 130.437 369.991 129.26 369.991 127.804C369.991 126.391 370.571 125.244 371.731 124.364C372.899 123.475 374.388 123.031 376.199 123.031C377.427 123.031 378.523 123.268 379.487 123.742C380.461 124.216 381.214 124.876 381.747 125.722C382.28 126.569 382.547 127.512 382.547 128.553H380.973C380.973 127.292 380.541 126.281 379.678 125.519C378.815 124.749 377.655 124.364 376.199 124.364C374.786 124.364 373.66 124.681 372.822 125.316C371.985 125.942 371.566 126.763 371.566 127.779C371.566 128.718 371.942 129.484 372.695 130.077C373.449 130.669 374.655 131.194 376.314 131.651C377.973 132.1 379.229 132.569 380.084 133.06C380.939 133.543 381.582 134.122 382.014 134.8C382.445 135.477 382.661 136.276 382.661 137.199C382.661 138.655 382.077 139.823 380.909 140.703C379.75 141.583 378.218 142.023 376.314 142.023C375.01 142.023 373.813 141.79 372.721 141.325C371.638 140.859 370.812 140.208 370.245 139.37C369.687 138.532 369.407 137.571 369.407 136.488H370.969C370.969 137.791 371.456 138.82 372.429 139.573C373.402 140.326 374.697 140.703 376.314 140.703C377.752 140.703 378.908 140.385 379.779 139.751C380.651 139.116 381.087 138.274 381.087 137.224ZM399.698 133.53C399.698 135.231 399.402 136.725 398.81 138.011C398.226 139.298 397.388 140.288 396.296 140.982C395.204 141.676 393.943 142.023 392.513 142.023C390.355 142.023 388.611 141.253 387.282 139.713C385.954 138.164 385.289 136.078 385.289 133.454V131.55C385.289 129.865 385.585 128.376 386.178 127.081C386.779 125.777 387.625 124.779 388.717 124.085C389.809 123.382 391.066 123.031 392.487 123.031C393.909 123.031 395.162 123.374 396.245 124.059C397.337 124.745 398.179 125.714 398.772 126.967C399.364 128.219 399.673 129.671 399.698 131.321V133.53ZM398.137 131.524C398.137 129.298 397.633 127.555 396.626 126.294C395.619 125.033 394.239 124.402 392.487 124.402C390.769 124.402 389.398 125.037 388.374 126.306C387.359 127.567 386.851 129.332 386.851 131.6V133.53C386.851 135.722 387.359 137.461 388.374 138.748C389.39 140.026 390.769 140.665 392.513 140.665C394.282 140.665 395.661 140.034 396.652 138.773C397.642 137.504 398.137 135.739 398.137 133.479V131.524ZM416.723 136.006C416.511 137.952 415.813 139.442 414.628 140.474C413.452 141.507 411.882 142.023 409.918 142.023C408.547 142.023 407.333 141.68 406.275 140.995C405.225 140.309 404.413 139.34 403.837 138.088C403.262 136.827 402.97 135.388 402.961 133.771V131.372C402.961 129.73 403.249 128.274 403.824 127.005C404.4 125.735 405.225 124.758 406.3 124.072C407.383 123.378 408.627 123.031 410.032 123.031C412.013 123.031 413.574 123.568 414.717 124.643C415.868 125.71 416.537 127.187 416.723 129.074H415.149C414.759 125.934 413.054 124.364 410.032 124.364C408.357 124.364 407.019 124.99 406.021 126.243C405.03 127.495 404.535 129.226 404.535 131.435V133.695C404.535 135.828 405.018 137.529 405.983 138.799C406.956 140.068 408.268 140.703 409.918 140.703C411.552 140.703 412.783 140.314 413.612 139.535C414.442 138.748 414.954 137.571 415.149 136.006H416.723ZM422.423 141.769H420.862V123.285H422.423V141.769ZM437.657 136.59H429.266L427.362 141.769H425.724L432.719 123.285H434.204L441.199 141.769H439.574L437.657 136.59ZM429.748 135.257H437.162L433.455 125.189L429.748 135.257ZM445.503 140.449H454.631V141.769H443.929V123.285H445.503V140.449ZM457.145 140.855C457.145 140.559 457.238 140.309 457.424 140.106C457.619 139.895 457.885 139.789 458.224 139.789C458.562 139.789 458.829 139.895 459.024 140.106C459.218 140.309 459.316 140.559 459.316 140.855C459.316 141.151 459.218 141.397 459.024 141.592C458.829 141.778 458.562 141.871 458.224 141.871C457.885 141.871 457.619 141.778 457.424 141.592C457.238 141.397 457.145 141.151 457.145 140.855Z" fill="#8AA4FF"/>
</svg>
