<svg id="Layer_1" enable-background="new 0 0 480 480" height="512" viewBox="0 0 480 480" width="512"
    xmlns="http://www.w3.org/2000/svg">
    <g>
        <path fill="#fff"
            d="m277.136 2.635c-4.366-.679-8.455 2.312-9.133 6.677s2.311 8.455 6.677 9.133c109.699 17.045 189.32 110.129 189.32 221.333 0 123.514-100.486 224-224 224s-224-100.486-224-224c0-118.125 92.239-216.329 209.99-223.571 4.41-.271 7.765-4.066 7.494-8.476s-4.065-7.767-8.476-7.494c-126.173 7.76-225.008 112.98-225.008 239.541 0 132.64 107.341 240 240 240 133.423 0 240-108.211 240-240 0-119.365-87.467-219.213-202.864-237.143z" />
        <path fill="#fff"
            d="m237.256 424.758c-4.405-.088-8.054 3.459-8.121 7.877-.067 4.417 3.459 8.054 7.877 8.121 3.936.06 7.775.003 11.446-.148 4.415-.182 7.846-3.908 7.664-8.323s-3.925-7.855-8.323-7.664c-3.486.144-7.019.19-10.543.137z" />
        <path fill="#fff"
            d="m156.973 405.152c-3.948-1.986-8.756-.396-10.742 3.552-1.985 3.947-.395 8.756 3.552 10.742 3.391 1.706 6.877 3.335 10.359 4.844 4.077 1.764 8.774-.13 10.521-4.162 1.756-4.054-.108-8.765-4.162-10.521-3.203-1.388-6.408-2.886-9.528-4.455z" />
        <path fill="#fff"
            d="m150.833 76.576c3.075 0 3.217-1.024 13.184-5.522 4.027-1.817 5.819-6.555 4.002-10.582s-6.554-5.82-10.582-4.002c-3.466 1.563-6.935 3.25-10.313 5.013-3.917 2.044-5.435 6.877-3.391 10.794 1.429 2.734 4.215 4.299 7.1 4.299z" />
        <path fill="#fff"
            d="m226.297 47.085c.128 4.463 3.869 7.905 8.225 7.768 3.487-.1 7.015-.103 10.55-.005 4.43.124 8.095-3.361 8.216-7.778s-3.361-8.095-7.778-8.216c-3.831-.105-7.66-.103-11.444.006-4.417.126-7.895 3.808-7.769 8.225z" />
        <path fill="#fff"
            d="m327.525 402.801c-3.089 1.662-6.262 3.254-9.431 4.732-4.004 1.868-5.735 6.628-3.868 10.632 1.871 4.01 6.633 5.733 10.632 3.868 3.443-1.606 6.891-3.336 10.247-5.142 3.891-2.093 5.348-6.945 3.255-10.835-2.093-3.891-6.944-5.347-10.835-3.255z" />
        <path fill="#fff"
            d="m320.947 73.375c3.966 1.933 8.758.29 10.696-3.688 1.936-3.972.285-8.761-3.687-10.696-3.413-1.663-6.918-3.249-10.419-4.712-4.076-1.704-8.763.218-10.467 4.294-1.705 4.076.218 8.762 4.294 10.467 3.22 1.346 6.445 2.805 9.583 4.335z" />
        <path fill="#fff"
            d="m422.139 272.337c-.612 3.448-1.331 6.919-2.137 10.319-1.019 4.299 1.64 8.61 5.939 9.629 4.331 1.027 8.618-1.671 9.629-5.939.876-3.694 1.657-7.467 2.322-11.213.772-4.35-2.128-8.502-6.479-9.275-4.352-.773-8.501 2.129-9.274 6.479z" />
        <path fill="#fff"
            d="m390.531 106.579c-2.929-3.309-7.983-3.617-11.293-.689-3.309 2.928-3.617 7.984-.689 11.293 2.324 2.625 4.599 5.348 6.764 8.092 1.579 2.001 3.921 3.045 6.286 3.045 6.591 0 10.444-7.672 6.275-12.956-2.351-2.979-4.821-5.935-7.343-8.785z" />
        <path fill="#fff"
            d="m389.785 348.388c-2.052 2.824-4.215 5.631-6.431 8.343-2.796 3.421-2.289 8.461 1.133 11.257 3.444 2.814 8.479 2.267 11.257-1.133 2.407-2.946 4.757-5.995 6.987-9.064 2.597-3.575 1.804-8.578-1.771-11.174-3.576-2.597-8.578-1.803-11.175 1.771z" />
        <path fill="#fff"
            d="m433.566 185.427c-1.192-4.254-5.607-6.736-9.863-5.542-4.254 1.193-6.736 5.609-5.542 9.863.944 3.368 1.803 6.807 2.553 10.222.82 3.738 4.13 6.287 7.806 6.287 5.099 0 8.921-4.71 7.822-9.716-.815-3.714-1.749-7.452-2.776-11.114z" />
        <path fill="#fff"
            d="m87.811 371.078c2.882 3.34 7.935 3.719 11.283.828 3.345-2.887 3.715-7.939.828-11.283-2.288-2.651-4.529-5.401-6.662-8.174-2.693-3.503-7.716-4.16-11.218-1.466-3.503 2.693-4.159 7.715-1.466 11.218 2.316 3.012 4.75 5.999 7.235 8.877z" />
        <path fill="#fff"
            d="m50.431 211.44c3.765 0 7.12-2.67 7.85-6.504.655-3.441 1.418-6.904 2.266-10.291 1.073-4.286-1.531-8.63-5.817-9.704-4.286-1.075-8.63 1.531-9.704 5.817-.922 3.682-1.751 7.444-2.463 11.184-.938 4.928 2.84 9.498 7.868 9.498z" />
        <path fill="#fff"
            d="m45.768 291.695c1.136 4.254 5.506 6.808 9.792 5.667 4.269-1.14 6.806-5.524 5.667-9.792-.901-3.375-1.716-6.824-2.423-10.253-.892-4.328-5.122-7.113-9.451-6.219-4.327.892-7.112 5.124-6.219 9.451.768 3.726 1.655 7.477 2.634 11.146z" />
        <path fill="#fff"
            d="m85.172 132.515c2.439 0 4.848-1.112 6.419-3.217 2.092-2.804 4.291-5.585 6.537-8.264 2.838-3.386 2.394-8.432-.992-11.271-3.388-2.839-8.433-2.394-11.271.992-2.439 2.91-4.828 5.93-7.1 8.976-3.965 5.317-.079 12.784 6.407 12.784z" />
        <path fill="#fff"
            d="m147.216 127.538-30 48c-2.341 3.747-1.203 8.683 2.544 11.024s8.682 1.203 11.024-2.544l27.65-44.24h183.132l-20 32h-150.759c-4.418 0-8 3.582-8 8s3.582 8 8 8h155.193c2.758 0 5.322-1.421 6.784-3.76l30-48c3.323-5.319-.506-12.24-6.784-12.24h-202c-2.758 0-5.322 1.421-6.784 3.76z" />
        <path fill="#fff"
            d="m362.784 259.538-30-48c-2.342-3.746-7.276-4.885-11.024-2.544-3.747 2.342-4.885 7.277-2.544 11.024l22.35 35.76h-183.132l-20-32h142.308c4.418 0 8-3.582 8-8s-3.582-8-8-8h-156.742c-6.271 0-10.111 6.916-6.784 12.24l30 48c1.462 2.339 4.026 3.76 6.784 3.76h202c6.271 0 10.111-6.916 6.784-12.24z" />
        <path fill="#fff"
            d="m356 291.778h-202c-2.758 0-5.322 1.421-6.784 3.76l-30 48c-3.323 5.319.506 12.24 6.784 12.24h158.807c4.418 0 8-3.582 8-8s-3.582-8-8-8h-144.373l20-32h183.132l-22.35 35.76c-2.341 3.747-1.203 8.683 2.544 11.024s8.682 1.203 11.024-2.544l30-48c3.323-5.318-.506-12.24-6.784-12.24z" />
    </g>
</svg>