<?xml version="1.0" encoding="iso-8859-1"?>
<!-- Generator: Adobe Illustrator 16.0.0, SVG Export Plug-In . SVG Version: 6.00 Build 0)  -->
<!DOCTYPE svg PUBLIC "-//W3C//DTD SVG 1.1//EN" "http://www.w3.org/Graphics/SVG/1.1/DTD/svg11.dtd">
<svg version="1.1" id="Capa_1" xmlns="http://www.w3.org/2000/svg" xmlns:xlink="http://www.w3.org/1999/xlink" x="0px" y="0px"
	 width="50px" height="50px" viewBox="0 0 50 50" style="enable-background:new 0 0 50 50;" xml:space="preserve">
<g>
	<g>
		<path fill="#fff" d="M45.246,24.456c3.006-4.579,3.678-8.825,1.867-11.958c-1.646-2.834-5.158-4.397-9.898-4.397
			c-0.655,0-1.342,0.03-2.051,0.094C32.803,3.147,29.356,0,25.469,0c-2.182,0-4.198,1.005-5.989,2.752
			c-0.188-0.059-0.375-0.117-0.576-0.117c-1.177,0-2.125,0.956-2.125,2.133c0,0.383,0.117,0.724,0.297,1.035
			c-0.472,0.741-0.916,1.525-1.317,2.393c-0.711-0.064-1.396-0.094-2.052-0.094c-4.739,0-8.253,1.563-9.897,4.397
			c-1.811,3.133-1.141,7.38,1.867,11.958c0.127,0.175,0.268,0.349,0.383,0.523c-1.954,2.803-3.078,5.59-3.222,8.118
			c-0.556,0.379-0.949,0.992-0.949,1.734c0,1.004,0.701,1.809,1.632,2.034c0.099,0.213,0.177,0.433,0.289,0.633
			c1.644,2.834,5.157,4.396,9.896,4.396c0.656,0,1.341-0.028,2.051-0.094C18.119,46.852,21.565,50,25.469,50
			c3.889,0,7.334-3.148,9.695-8.198c0.709,0.065,1.394,0.095,2.049,0.095c2.189,0,4.099-0.345,5.703-0.979
			c0.326,0.19,0.672,0.322,1.064,0.322c1.18,0,2.126-0.956,2.126-2.134c0-0.09-0.026-0.166-0.05-0.254
			c0.41-0.416,0.768-0.858,1.057-1.352c1.95-3.376,0.936-7.938-2.25-12.52C44.978,24.805,45.119,24.631,45.246,24.456z
			 M37.215,10.234c3.947,0,6.812,1.187,8.047,3.335c1.372,2.377,0.742,5.794-1.76,9.625c-1.52-1.852-3.375-3.68-5.551-5.413
			c-0.408-2.736-1.057-5.253-1.908-7.496C36.438,10.271,36.848,10.234,37.215,10.234z M38.319,20.922
			c1.476,1.339,2.784,2.712,3.867,4.085c-1.11,1.408-2.401,2.78-3.87,4.099c0.107-1.33,0.172-2.695,0.172-4.105
			C38.488,23.606,38.424,22.248,38.319,20.922z M35.412,15.91c-1.088-0.766-2.222-1.503-3.433-2.196
			c-1.207-0.698-2.428-1.312-3.651-1.891c1.892-0.614,3.735-1.053,5.494-1.306C34.467,12.14,35.004,13.962,35.412,15.91z
			 M32.9,8.479c-2.389,0.406-4.912,1.123-7.448,2.113c-2.52-0.99-5.042-1.707-7.43-2.104c0.285-0.56,0.582-1.085,0.885-1.579
			c1.19-0.002,2.136-0.957,2.136-2.141c0-0.159-0.055-0.305-0.096-0.465c1.379-1.372,2.916-2.163,4.521-2.163
			C28.31,2.14,30.938,4.583,32.9,8.479z M17.099,10.518c1.758,0.253,3.604,0.692,5.494,1.306c-1.223,0.578-2.442,1.192-3.648,1.889
			c-1.213,0.693-2.346,1.431-3.434,2.188C15.917,13.961,16.457,12.14,17.099,10.518z M5.661,13.57
			c1.232-2.148,4.098-3.335,8.046-3.335c0.367,0,0.778,0.038,1.171,0.06c-0.851,2.234-1.498,4.75-1.906,7.486
			c-2.177,1.734-4.033,3.562-5.553,5.415C4.916,19.366,4.288,15.947,5.661,13.57z M12.604,29.107
			c-1.469-1.319-2.759-2.691-3.87-4.092c1.083-1.382,2.395-2.755,3.869-4.095c-0.105,1.325-0.169,2.684-0.169,4.078
			C12.435,26.41,12.499,27.775,12.604,29.107z M13.707,39.764c-3.948,0-6.813-1.188-8.045-3.334
			c-0.038-0.054-0.048-0.117-0.083-0.172c0.362-0.375,0.576-0.877,0.576-1.426c0-0.822-0.481-1.509-1.144-1.87
			c0.164-1.878,1.006-3.983,2.442-6.155c1.534,1.879,3.389,3.707,5.518,5.401c0.408,2.735,1.055,5.261,1.906,7.495
			C14.484,39.725,14.074,39.764,13.707,39.764z M15.511,34.088c1.092,0.771,2.243,1.507,3.433,2.196
			c1.205,0.698,2.427,1.312,3.649,1.882c-1.89,0.621-3.736,1.061-5.495,1.314C16.456,37.85,15.917,36.037,15.511,34.088z
			 M25.469,47.859c-2.858,0-5.486-2.444-7.448-6.349c2.389-0.397,4.912-1.122,7.432-2.104c2.536,0.982,5.06,1.708,7.45,2.104
			C30.939,45.415,28.311,47.859,25.469,47.859z M33.822,39.48c-1.758-0.252-3.604-0.693-5.494-1.314
			c1.225-0.57,2.444-1.186,3.651-1.882c1.188-0.688,2.34-1.425,3.433-2.197C35.004,36.036,34.468,37.85,33.822,39.48z
			 M30.908,34.432c-1.8,1.041-3.621,1.922-5.456,2.674c-1.819-0.752-3.642-1.633-5.438-2.672c-1.799-1.033-3.471-2.166-5.03-3.371
			c-0.275-1.938-0.426-3.967-0.426-6.062c0-2.092,0.15-4.11,0.424-6.054c1.535-1.197,3.225-2.343,5.032-3.389
			c1.797-1.032,3.619-1.913,5.438-2.665c1.834,0.752,3.656,1.633,5.456,2.666c1.809,1.045,3.479,2.192,5.031,3.389
			c0.273,1.943,0.424,3.96,0.424,6.053c0,2.095-0.15,4.124-0.425,6.062C34.379,32.259,32.707,33.398,30.908,34.432z M45.262,36.43
			c-0.145,0.244-0.307,0.479-0.492,0.698c-0.245-0.098-0.518-0.163-0.788-0.163c-1.159,0-2.091,0.926-2.132,2.073
			c-1.284,0.466-2.84,0.726-4.637,0.726c-0.366,0-0.775-0.039-1.17-0.059c0.854-2.234,1.502-4.762,1.908-7.498
			c2.129-1.693,3.981-3.521,5.517-5.4C45.883,30.465,46.683,33.963,45.262,36.43z"/>
		<path fill="#fff" d="M25.453,20.727c-2.354,0-4.264,1.909-4.264,4.273c0,2.361,1.909,4.273,4.264,4.273c2.37,0,4.281-1.912,4.281-4.273
			C29.733,22.636,27.822,20.727,25.453,20.727z"/>
	</g>
</g>
<g>
</g>
<g>
</g>
<g>
</g>
<g>
</g>
<g>
</g>
<g>
</g>
<g>
</g>
<g>
</g>
<g>
</g>
<g>
</g>
<g>
</g>
<g>
</g>
<g>
</g>
<g>
</g>
<g>
</g>
</svg>
